<svg width="50" height="50" viewBox="0 0 100 100" fill="none" xmlns="http://www.w3.org/2000/svg">
<path d="M49.0566 24C49.0566 20.6667 47.956 17.8333 45.7547 15.5C43.5535 13.1667 40.8805 12 37.7358 12C34.5912 12 31.9182 13.1667 29.717 15.5C27.5157 17.8333 26.4151 20.6667 26.4151 24C26.4151 25.75 26.7885 27.4792 27.5354 29.1875C25.9237 28.3958 24.2925 28 22.6415 28C19.4969 28 16.8239 29.1667 14.6226 31.5C12.4214 33.8333 11.3208 36.6667 11.3208 40C11.3208 43.3333 12.4214 46.1667 14.6226 48.5C16.8239 50.8333 19.4969 52 22.6415 52C25.7862 52 28.4591 50.8333 30.6604 48.5C32.8616 46.1667 33.9623 43.3333 33.9623 40C33.9623 38.25 33.5888 36.5208 32.842 34.8125C34.4536 35.6042 36.0849 36 37.7358 36C40.8805 36 43.5535 34.8333 45.7547 32.5C47.956 30.1667 49.0566 27.3333 49.0566 24ZM99.2335 68C99.2335 68.7083 98.2704 70.0833 96.3443 72.125C94.4182 74.1667 93.1211 75.1875 92.4528 75.1875C92.0991 75.1875 91.5389 74.8542 90.7724 74.1875C90.0059 73.5208 89.2885 72.8333 88.6203 72.125C87.952 71.4167 87.1954 70.5833 86.3502 69.625C85.5051 68.6667 85.0236 68.125 84.9057 68L79.2453 74L92.217 87.75C93.3176 88.9167 93.8679 90.3333 93.8679 92C93.8679 93.75 93.1014 95.4375 91.5684 97.0625C90.0354 98.6875 88.4434 99.5 86.7924 99.5C85.2201 99.5 83.8836 98.9167 82.783 97.75L43.2193 55.8125C36.3011 61.2708 29.1274 64 21.6981 64C15.2909 64 10.0727 61.8646 6.04363 57.5938C2.01454 53.3229 0 47.7917 0 41C0 34.3333 1.86714 27.8125 5.60142 21.4375C9.33569 15.0625 14.2099 9.89583 20.2241 5.9375C26.2382 1.97917 32.3899 0 38.6792 0C45.0865 0 50.3046 2.13542 54.3337 6.40625C58.3628 10.6771 60.3774 16.2083 60.3774 23C60.3774 30.875 57.8027 38.4792 52.6533 45.8125L73.5849 68L79.2453 62C79.1274 61.875 78.6163 61.3646 77.7123 60.4688C76.8082 59.5729 76.022 58.7708 75.3538 58.0625C74.6855 57.3542 74.0369 56.5938 73.408 55.7812C72.7791 54.9688 72.4646 54.375 72.4646 54C72.4646 53.2917 73.4277 51.9167 75.3538 49.875C77.2799 47.8333 78.577 46.8125 79.2453 46.8125C79.7563 46.8125 80.2083 47.0208 80.6014 47.4375C80.8373 47.6875 81.7413 48.6146 83.3137 50.2188C84.886 51.8229 86.4976 53.4792 88.1486 55.1875C89.7995 56.8958 91.4996 58.6875 93.2488 60.5625C94.998 62.4375 96.4328 64.0625 97.5531 65.4375C98.6733 66.8125 99.2335 67.6667 99.2335 68Z" fill="white"/>
</svg>
